<svg width="48" height="48" fill="none" xmlns="http://www.w3.org/2000/svg"><path d="M7 37.813H5.25c0 .966.784 1.75 1.75 1.75v-1.75zm0-21.25v-1.75a1.75 1.75 0 00-1.75 1.75H7zm34 21.25v1.75a1.75 1.75 0 001.75-1.75H41zm0-21.25h1.75a1.75 1.75 0 00-1.75-1.75v1.75zm-8.5 0l-1.456.97c.325.487.87.78 1.456.78v-1.75zm-17 0v1.75a1.75 1.75 0 001.456-.78l-1.456-.97zm4.25-6.375v-1.75a1.75 1.75 0 00-1.456.779l1.456.97zm8.5 0l1.456-.971a1.75 1.75 0 00-1.456-.78v1.75zM8.75 37.811v-21.25h-3.5v21.25h3.5zM7 39.563h34v-3.5H7v3.5zm35.75-1.75v-21.25h-3.5v21.25h3.5zm-1.75-23h-8.5v3.5H41v-3.5zm-34 3.5h8.5v-3.5H7v3.5zm9.956-.779l4.25-6.375-2.912-1.941-4.25 6.375 2.912 1.941zm17-1.941l-4.25-6.375-2.912 1.941 4.25 6.375 2.912-1.941zM28.25 8.437h-8.5v3.5h8.5v-3.5zm.375 17.688A4.625 4.625 0 0124 30.75v3.5a8.125 8.125 0 008.125-8.125h-3.5zM24 30.75a4.625 4.625 0 01-4.625-4.625h-3.5A8.125 8.125 0 0024 34.25v-3.5zm-4.625-4.625A4.625 4.625 0 0124 21.5V18a8.125 8.125 0 00-8.125 8.125h3.5zM24 21.5a4.625 4.625 0 014.625 4.625h3.5A8.125 8.125 0 0024 18v3.5z" fill="#14161A"/></svg>
