<svg width="48" height="48" fill="none" xmlns="http://www.w3.org/2000/svg"><path d="M10 19.999v-1.75a1.75 1.75 0 00-1.75 1.75H10zm0 20H8.25c0 .966.784 1.75 1.75 1.75v-1.75zm28-20h1.75a1.75 1.75 0 00-1.75-1.75v1.75zm0 20v1.75a1.75 1.75 0 001.75-1.75H38zm-24-20h-1.75v1.75H14v-1.75zm20 0v1.75h1.75v-1.75H34zm-8.25 6.964a1.75 1.75 0 10-3.5 0h3.5zm-3.5 6a1.75 1.75 0 103.5 0h-3.5zm-14-12.964v20h3.5v-20h-3.5zm1.75 1.75h28v-3.5H10v3.5zm28 16.5H10v3.5h28v-3.5zm-1.75-18.25v20h3.5v-20h-3.5zm-20.5 0c0-2.81.933-5.456 2.523-7.363l-2.688-2.241c-2.161 2.592-3.335 6.05-3.335 9.604h3.5zm2.523-7.363C19.855 10.737 21.925 9.75 24 9.75v-3.5c-3.23 0-6.247 1.542-8.415 4.144l2.688 2.24zM24 9.75c2.075 0 4.145.986 5.727 2.885l2.688-2.241C30.247 7.793 27.23 6.25 24 6.25v3.5zm5.727 2.885c1.59 1.907 2.523 4.552 2.523 7.363h3.5c0-3.553-1.174-7.012-3.335-9.604l-2.688 2.24zM34 18.249H14v3.5h20v-3.5zm-11.75 8.714v6h3.5v-6h-3.5z" fill="#14161A"/></svg>
