<svg width="48" height="48" fill="none" xmlns="http://www.w3.org/2000/svg"><path d="M17.536 23.97l7.4-5.85m0 0l4.992-4.342m-4.993 4.342c2.359-1.464 8.127-4.898 13.024 0 1.193 1.193 4.358 5.85-.885 11.094l-13.89 11.461c-2.952 1.879-8.669 2.342-11.81-1.879-2-2.687-2.34-5.546-.82-7.716m20.107-7.11l-6.743 5.244m0 0l-5.648 5.001m5.648-5.001c-3.311 2.932-10.063 3.978-14.042 0-2.279-2.28-2.715-7.014 0-9.729L24.651 7.138c2.953-1.879 8.67-1.85 11.81 2.371 1.583 2.126 2.453 4.352.98 7.667" stroke="#14161A" stroke-width="3.5" stroke-linecap="round"/></svg>
