<svg width="48" height="48" fill="none" xmlns="http://www.w3.org/2000/svg"><path d="M8 29.855c3.094-2.871 0-10.685 4.279-16.495m5.598-4.412c8.173-3.967 12.02-2.2 16.777 1.941 5.561 4.841 6.609 16.103 3.953 26.112m-25.256.4s2.6-4.015 3.684-7.011c1.802-4.98 0-8.749 2.118-12.002.894-1.375 2.95-3.18 5.527-3.18 3.811 0 6.225 1.692 7.63 6.433m0 6.802c0 6.641-1.005 8.959-3.819 12.832m-3.21-17.257c0 9.597-1.345 11.314-5.365 17.257" stroke="#62646A" stroke-width="3.5" stroke-linecap="round" stroke-linejoin="round"/></svg>
