<svg width="48" height="48" viewBox="0 0 48 48" fill="none" xmlns="http://www.w3.org/2000/svg">
<path d="M16 37.8564C12.9497 36.0953 10.5658 33.377 9.2179 30.1229C7.87004 26.8689 7.63356 23.261 8.54516 19.8589C9.45676 16.4568 11.4655 13.4505 14.2598 11.3064C17.0541 9.1622 20.4778 8.00001 24 8.00001C27.5221 8.00001 30.9459 9.1622 33.7402 11.3064C36.5345 13.4505 38.5432 16.4568 39.4548 19.8589C40.3664 23.261 40.1299 26.8689 38.7821 30.1229C37.4342 33.377 35.0502 36.0953 32 37.8564L27.2 29.5426C28.4201 28.8381 29.3737 27.7508 29.9128 26.4492C30.452 25.1476 30.5465 23.7044 30.1819 22.3436C29.8173 20.9827 29.0138 19.7802 27.8961 18.9225C26.7783 18.0649 25.4088 17.6 24 17.6C22.5911 17.6 21.2216 18.0649 20.1039 18.9225C18.9862 19.7802 18.1827 20.9827 17.8181 22.3436C17.4534 23.7044 17.548 25.1476 18.0871 26.4492C18.6263 27.7508 19.5799 28.8381 20.8 29.5426L16 37.8564Z" stroke="#62646A" stroke-width="3.5" stroke-linejoin="round"/>
</svg>
