<svg width="48" height="48" viewBox="0 0 48 48" fill="none" xmlns="http://www.w3.org/2000/svg">
<path d="M8.00003 24C8.00003 27.8817 9.41119 31.631 11.9706 34.5495C14.53 37.4679 18.0631 39.3564 21.9116 39.8631C25.7601 40.3697 29.6616 39.46 32.8892 37.3035C36.1167 35.1469 38.4502 31.8905 39.4548 28.1411C40.4595 24.3916 40.0668 20.4048 38.35 16.9233C36.6331 13.4419 33.7092 10.7034 30.123 9.21788C26.5367 7.73241 22.5327 7.60133 18.857 8.84907C15.1813 10.0968 12.0845 12.6383 10.1436 16M10.1436 16H15.9333M10.1436 16L9.2296 9.92606M23 17.5271V24.4729L27.6972 29.17" stroke="#62646A" stroke-width="3.5" stroke-linecap="round" stroke-linejoin="round"/>
</svg>
