<svg width="48" height="48" fill="none" xmlns="http://www.w3.org/2000/svg"><circle cx="24" cy="24" r="3" fill="#62646A"/><path fill-rule="evenodd" clip-rule="evenodd" d="M14.622 18.585c.16.568.344 1.148.549 1.74a46.98 46.98 0 011.231-2.133c-.614.118-1.208.25-1.78.393zm-.657-2.928a37.936 37.936 0 014.727-.851 37.925 37.925 0 013.1-3.668c-.173-.14-.345-.276-.517-.406-1.391-1.055-2.66-1.715-3.723-2.002-1.056-.286-1.793-.18-2.302.115-.509.293-.97.879-1.25 1.935-.283 1.065-.346 2.493-.128 4.226.027.214.058.43.093.651zm6.371 1.997a43.188 43.188 0 00-1.965 3.096A43.191 43.191 0 0016.672 24a43.191 43.191 0 001.699 3.25 43.22 43.22 0 001.965 3.096c1.18.1 2.405.154 3.664.154 1.259 0 2.484-.053 3.664-.154a43.186 43.186 0 001.965-3.096A43.191 43.191 0 0031.328 24a43.191 43.191 0 00-1.699-3.25 43.223 43.223 0 00-1.965-3.096c-1.18-.1-2.405-.154-3.664-.154-1.259 0-2.484.053-3.664.154zm4.896-3.138a47.386 47.386 0 00-2.463 0c.409-.473.82-.922 1.231-1.345.41.423.822.872 1.232 1.345zm6.366 3.676a46.813 46.813 0 011.231 2.133c.205-.591.388-1.172.55-1.74a32.135 32.135 0 00-1.781-.393zm2.437-2.535a37.937 37.937 0 00-4.727-.851 37.94 37.94 0 00-3.1-3.668c.173-.14.345-.276.517-.406 1.391-1.055 2.66-1.715 3.723-2.002 1.056-.286 1.793-.18 2.302.115.509.293.97.879 1.25 1.935.283 1.065.346 2.493.128 4.226-.027.214-.058.43-.093.651zm2.208 3.823A37.92 37.92 0 0134.617 24a37.92 37.92 0 011.626 4.52c.208-.08.411-.162.61-.246 1.61-.677 2.815-1.446 3.596-2.223.775-.771 1.051-1.463 1.051-2.051 0-.588-.276-1.28-1.051-2.05-.78-.778-1.986-1.547-3.596-2.224a19.878 19.878 0 00-.61-.245zm.687 11.985c.374-.136.736-.278 1.087-.426 1.829-.77 3.406-1.725 4.548-2.862C43.713 27.034 44.5 25.621 44.5 24c0-1.621-.787-3.034-1.935-4.177-1.142-1.137-2.72-2.092-4.548-2.862-.35-.148-.713-.29-1.087-.426.069-.392.127-.777.175-1.155.247-1.968.209-3.812-.205-5.37-.416-1.565-1.246-2.953-2.65-3.764-1.404-.81-3.021-.835-4.585-.412-1.556.42-3.171 1.309-4.753 2.507-.303.23-.607.473-.912.729a23.616 23.616 0 00-.912-.729c-1.582-1.199-3.197-2.087-4.753-2.507-1.564-.423-3.18-.398-4.585.412-1.404.811-2.234 2.199-2.65 3.765-.414 1.558-.452 3.4-.205 5.37.048.377.106.762.175 1.154-.374.136-.736.278-1.087.426-1.829.77-3.406 1.725-4.548 2.862C4.287 20.966 3.5 22.379 3.5 24c0 1.621.787 3.034 1.935 4.177 1.142 1.137 2.72 2.092 4.548 2.862.35.148.713.29 1.087.426-.069.392-.127.777-.175 1.155-.247 1.968-.209 3.812.205 5.37.416 1.565 1.246 2.953 2.65 3.764 1.404.81 3.021.835 4.585.412 1.556-.42 3.171-1.308 4.753-2.507.303-.23.607-.473.912-.729.305.256.609.499.912.729 1.582 1.199 3.197 2.087 4.753 2.507 1.564.423 3.18.398 4.585-.412 1.404-.811 2.234-2.199 2.65-3.765.414-1.557.452-3.4.205-5.37a23.601 23.601 0 00-.175-1.154zm-3.552-2.05a32.045 32.045 0 00-.549-1.74 46.98 46.98 0 01-1.231 2.133c.614-.118 1.208-.25 1.78-.393zm-4.07 3.78a37.937 37.937 0 004.727-.852c.035.22.066.437.093.65.218 1.734.155 3.162-.128 4.226-.28 1.057-.741 1.643-1.25 1.936-.509.294-1.246.4-2.302.115-1.063-.287-2.332-.947-3.723-2.002-.172-.13-.344-.265-.518-.406a37.926 37.926 0 003.101-3.668zm-4.076.289a47.386 47.386 0 01-2.463 0c.409.473.82.922 1.231 1.345.41-.423.822-.872 1.232-1.345zm-8.83-3.676a47.036 47.036 0 01-1.231-2.133 32.045 32.045 0 00-.55 1.74c.573.144 1.167.275 1.781.393zm-2.437 2.535c1.473.367 3.06.655 4.727.851a37.926 37.926 0 003.1 3.668c-.173.14-.345.276-.517.406-1.391 1.055-2.66 1.715-3.723 2.002-1.056.286-1.793.18-2.302-.115-.509-.293-.97-.879-1.25-1.936-.283-1.064-.346-2.492-.128-4.225.027-.214.058-.43.093-.651zm-2.208-3.824A37.92 37.92 0 0113.383 24a37.92 37.92 0 01-1.626-4.52c-.208.08-.412.162-.61.246-1.61.677-2.815 1.446-3.596 2.223C6.777 22.72 6.5 23.412 6.5 24c0 .588.277 1.28 1.051 2.05.78.778 1.986 1.547 3.596 2.224.198.084.402.166.61.245z" fill="#62646A"/></svg>
