<svg width="48" height="48" fill="none" xmlns="http://www.w3.org/2000/svg"><path d="M40 36a4 4 0 11-8 0 4 4 0 018 0z" stroke="#62646A" stroke-width="3.5"/><path fill-rule="evenodd" clip-rule="evenodd" d="M8.004 8.393a1.75 1.75 0 00-1.75 1.75v27.714c0 .966.784 1.75 1.75 1.75h19.749a8.964 8.964 0 01-.752-3.5H9.755V11.893h7.988l2.125 2.752c.331.429.843.68 1.385.68h16.98l.012 11.957a8.974 8.974 0 013.502 1.79l-.016-15.499a1.75 1.75 0 00-1.75-1.748H22.112l-2.125-2.751a1.75 1.75 0 00-1.385-.68H8.004z" fill="#62646A"/></svg>
